<svg xmlns="http://www.w3.org/2000/svg" version="1.1" width="912.7mm" height="328.7mm" viewBox = " 0 0 3233.979037 1164.685997" >
<!-- Front--> 
<g transform="translate(22.5000185, 22.5000185) " > 
<polygon style="stroke:#000000; fill:none; stroke-width:0.90000074" points="0, 0 59.3504425, 0 59.3504425, 21.25986 118.700885, 21.25986 118.700885, 0 157.67729500000002, 0 157.67729500000002, 21.25986 196.653705, 21.25986 196.653705, 0 235.630115, 0 235.630115, 21.25986 274.60652500000003, 21.25986 274.60652500000003, 0 313.582935, 0 313.582935, 21.25986 352.559345, 21.25986 352.559345, 0 391.535755, 0 391.535755, 21.25986 430.512165, 21.25986 430.512165, 0 469.48857499999997, 0 469.48857499999997, 21.25986 508.46498499999996, 21.25986 508.46498499999996, 0 547.441395, 0 547.441395, 21.25986 586.417805, 21.25986 586.417805, 0 625.394215, 0 625.394215, 21.25986 664.370625, 21.25986 664.370625, 0 703.347035, 0 703.347035, 21.25986 742.323445, 21.25986 742.323445, 0 781.299855, 0 781.299855, 21.25986 820.276265, 21.25986 820.276265, 0 859.252675, 0 859.252675, 21.25986 898.2290849999999, 21.25986 898.2290849999999, 0 937.205495, 0 937.205495, 21.25986 976.181905, 21.25986 976.181905, 0 1015.158315, 0 1015.158315, 21.25986 1074.5087575, 21.25986 1074.5087575, 0 1133.8591999999999, 0 1133.8591999999999, 39.685072 1112.59934, 39.685072 1112.59934, 79.370144 1133.8591999999999, 79.370144 1133.8591999999999, 119.055216 1112.59934, 119.055216 1112.59934, 158.740288 1133.8591999999999, 158.740288 1133.8592, 198.42536 1074.5087575, 198.42536 1074.5087575, 177.1655 1015.158315, 177.1655 1015.158315, 198.42536 976.181905, 198.42536 976.181905, 177.1655 937.205495, 177.1655 937.205495, 198.42536 898.2290849999999, 198.42536 898.2290849999999, 177.1655 859.252675, 177.1655 859.252675, 198.42536 820.276265, 198.42536 820.276265, 177.1655 781.299855, 177.1655 781.299855, 198.42536 742.323445, 198.42536 742.323445, 177.1655 703.347035, 177.1655 703.347035, 198.42536 664.370625, 198.42536 664.370625, 177.1655 625.394215, 177.1655 625.394215, 198.42536 586.417805, 198.42536 586.417805, 177.1655 547.441395, 177.1655 547.441395, 198.42536 508.46498499999996, 198.42536 508.46498499999996, 177.1655 469.48857499999997, 177.1655 469.48857499999997, 198.42536 430.512165, 198.42536 430.512165, 177.1655 391.535755, 177.1655 391.535755, 198.42536 352.559345, 198.42536 352.559345, 177.1655 313.582935, 177.1655 313.582935, 198.42536 274.60652500000003, 198.42536 274.60652500000003, 177.1655 235.630115, 177.1655 235.630115, 198.42536 196.653705, 198.42536 196.653705, 177.1655 157.67729500000002, 177.1655 157.67729500000002, 198.42536 118.700885, 198.42536 118.700885, 177.1655 59.3504425, 177.1655 59.3504425, 198.42536 0, 198.42535999999998 0, 158.740288 21.25986, 158.740288 21.25986, 119.055216 0, 119.055216 0, 79.370144 21.25986, 79.370144 21.25986, 39.685072 0, 39.685072 "/> 
</g>
<!-- Back--> 
<g transform="translate(1156.3592185, 22.5000185) " > 
<polygon style="stroke:#000000; fill:none; stroke-width:0.90000074" points="0, 0 59.3504425, 0 59.3504425, 21.25986 118.700885, 21.25986 118.700885, 0 157.67729500000002, 0 157.67729500000002, 21.25986 196.653705, 21.25986 196.653705, 0 235.630115, 0 235.630115, 21.25986 274.60652500000003, 21.25986 274.60652500000003, 0 313.582935, 0 313.582935, 21.25986 352.559345, 21.25986 352.559345, 0 391.535755, 0 391.535755, 21.25986 430.512165, 21.25986 430.512165, 0 469.48857499999997, 0 469.48857499999997, 21.25986 508.46498499999996, 21.25986 508.46498499999996, 0 547.441395, 0 547.441395, 21.25986 586.417805, 21.25986 586.417805, 0 625.394215, 0 625.394215, 21.25986 664.370625, 21.25986 664.370625, 0 703.347035, 0 703.347035, 21.25986 742.323445, 21.25986 742.323445, 0 781.299855, 0 781.299855, 21.25986 820.276265, 21.25986 820.276265, 0 859.252675, 0 859.252675, 21.25986 898.2290849999999, 21.25986 898.2290849999999, 0 937.205495, 0 937.205495, 21.25986 976.181905, 21.25986 976.181905, 0 1015.158315, 0 1015.158315, 21.25986 1074.5087575, 21.25986 1074.5087575, 0 1133.8591999999999, 0 1133.8591999999999, 39.685072 1112.59934, 39.685072 1112.59934, 79.370144 1133.8591999999999, 79.370144 1133.8591999999999, 119.055216 1112.59934, 119.055216 1112.59934, 158.740288 1133.8591999999999, 158.740288 1133.8592, 198.42536 1074.5087575, 198.42536 1074.5087575, 177.1655 1015.158315, 177.1655 1015.158315, 198.42536 976.181905, 198.42536 976.181905, 177.1655 937.205495, 177.1655 937.205495, 198.42536 898.2290849999999, 198.42536 898.2290849999999, 177.1655 859.252675, 177.1655 859.252675, 198.42536 820.276265, 198.42536 820.276265, 177.1655 781.299855, 177.1655 781.299855, 198.42536 742.323445, 198.42536 742.323445, 177.1655 703.347035, 177.1655 703.347035, 198.42536 664.370625, 198.42536 664.370625, 177.1655 625.394215, 177.1655 625.394215, 198.42536 586.417805, 198.42536 586.417805, 177.1655 547.441395, 177.1655 547.441395, 198.42536 508.46498499999996, 198.42536 508.46498499999996, 177.1655 469.48857499999997, 177.1655 469.48857499999997, 198.42536 430.512165, 198.42536 430.512165, 177.1655 391.535755, 177.1655 391.535755, 198.42536 352.559345, 198.42536 352.559345, 177.1655 313.582935, 177.1655 313.582935, 198.42536 274.60652500000003, 198.42536 274.60652500000003, 177.1655 235.630115, 177.1655 235.630115, 198.42536 196.653705, 198.42536 196.653705, 177.1655 157.67729500000002, 177.1655 157.67729500000002, 198.42536 118.700885, 198.42536 118.700885, 177.1655 59.3504425, 177.1655 59.3504425, 198.42536 0, 198.42535999999998 0, 158.740288 21.25986, 158.740288 21.25986, 119.055216 0, 119.055216 0, 79.370144 21.25986, 79.370144 21.25986, 39.685072 0, 39.685072 "/> 
</g>
<!-- Left--> 
<g transform="translate(2290.2184185, 22.5000185) " > 
<polygon style="stroke:#000000; fill:none; stroke-width:0.90000074" points="21.25986, 0 64.6654075, 0 64.6654075, 21.25986 129.330815, 21.25986 129.330815, 0 168.30722500000002, 0 168.30722500000002, 21.25986 207.283635, 21.25986 207.283635, 0 246.260045, 0 246.260045, 21.25986 285.236455, 21.25986 285.236455, 0 324.21286499999997, 0 324.21286499999997, 21.25986 363.189275, 21.25986 363.189275, 0 402.16568500000005, 0 402.16568500000005, 21.25986 441.14209500000004, 21.25986 441.14209500000004, 0 480.118505, 0 480.118505, 21.25986 519.094915, 21.25986 519.094915, 0 558.071325, 0 558.071325, 21.25986 597.047735, 21.25986 597.047735, 0 636.024145, 0 636.024145, 21.25986 675.0005550000001, 21.25986 675.0005550000001, 0 713.9769650000001, 0 713.9769650000001, 21.25986 752.953375, 21.25986 752.953375, 0 791.929785, 0 791.929785, 21.25986 856.5951924999999, 21.25986 856.5951924999999, 0 900.00074, 0 900.00074, 39.685072 921.2606, 39.685072 921.2606, 79.370144 900.00074, 79.370144 900.00074, 119.055216 921.2606, 119.055216 921.2606, 158.740288 900.00074, 158.740288 900.0007400000001, 198.42536 856.5951924999999, 198.42536 856.5951924999999, 177.1655 791.929785, 177.1655 791.929785, 198.42536 752.953375, 198.42536 752.953375, 177.1655 713.9769650000001, 177.1655 713.9769650000001, 198.42536 675.0005550000001, 198.42536 675.0005550000001, 177.1655 636.024145, 177.1655 636.024145, 198.42536 597.047735, 198.42536 597.047735, 177.1655 558.071325, 177.1655 558.071325, 198.42536 519.094915, 198.42536 519.094915, 177.1655 480.118505, 177.1655 480.118505, 198.42536 441.14209500000004, 198.42536 441.14209500000004, 177.1655 402.16568500000005, 177.1655 402.16568500000005, 198.42536 363.189275, 198.42536 363.189275, 177.1655 324.21286499999997, 177.1655 324.21286499999997, 198.42536 285.236455, 198.42536 285.236455, 177.1655 246.260045, 177.1655 246.260045, 198.42536 207.283635, 198.42536 207.283635, 177.1655 168.30722500000002, 177.1655 168.30722500000002, 198.42536 129.330815, 198.42536 129.330815, 177.1655 64.6654075, 177.1655 64.6654075, 198.42536 21.25986, 198.42535999999998 21.25986, 158.740288 0, 158.740288 0, 119.055216 21.25986, 119.055216 21.25986, 79.370144 0, 79.370144 0, 39.685072 21.25986, 39.685072 "/> 
</g>
<!-- Right--> 
<g transform="translate(2290.2184185, 220.9253785) " > 
<polygon style="stroke:#000000; fill:none; stroke-width:0.90000074" points="21.25986, 0 64.6654075, 0 64.6654075, 21.25986 129.330815, 21.25986 129.330815, 0 168.30722500000002, 0 168.30722500000002, 21.25986 207.283635, 21.25986 207.283635, 0 246.260045, 0 246.260045, 21.25986 285.236455, 21.25986 285.236455, 0 324.21286499999997, 0 324.21286499999997, 21.25986 363.189275, 21.25986 363.189275, 0 402.16568500000005, 0 402.16568500000005, 21.25986 441.14209500000004, 21.25986 441.14209500000004, 0 480.118505, 0 480.118505, 21.25986 519.094915, 21.25986 519.094915, 0 558.071325, 0 558.071325, 21.25986 597.047735, 21.25986 597.047735, 0 636.024145, 0 636.024145, 21.25986 675.0005550000001, 21.25986 675.0005550000001, 0 713.9769650000001, 0 713.9769650000001, 21.25986 752.953375, 21.25986 752.953375, 0 791.929785, 0 791.929785, 21.25986 856.5951924999999, 21.25986 856.5951924999999, 0 900.00074, 0 900.00074, 39.685072 921.2606, 39.685072 921.2606, 79.370144 900.00074, 79.370144 900.00074, 119.055216 921.2606, 119.055216 921.2606, 158.740288 900.00074, 158.740288 900.0007400000001, 198.42536 856.5951924999999, 198.42536 856.5951924999999, 177.1655 791.929785, 177.1655 791.929785, 198.42536 752.953375, 198.42536 752.953375, 177.1655 713.9769650000001, 177.1655 713.9769650000001, 198.42536 675.0005550000001, 198.42536 675.0005550000001, 177.1655 636.024145, 177.1655 636.024145, 198.42536 597.047735, 198.42536 597.047735, 177.1655 558.071325, 177.1655 558.071325, 198.42536 519.094915, 198.42536 519.094915, 177.1655 480.118505, 177.1655 480.118505, 198.42536 441.14209500000004, 198.42536 441.14209500000004, 177.1655 402.16568500000005, 177.1655 402.16568500000005, 198.42536 363.189275, 198.42536 363.189275, 177.1655 324.21286499999997, 177.1655 324.21286499999997, 198.42536 285.236455, 198.42536 285.236455, 177.1655 246.260045, 177.1655 246.260045, 198.42536 207.283635, 198.42536 207.283635, 177.1655 168.30722500000002, 177.1655 168.30722500000002, 198.42536 129.330815, 198.42536 129.330815, 177.1655 64.6654075, 177.1655 64.6654075, 198.42536 21.25986, 198.42535999999998 21.25986, 158.740288 0, 158.740288 0, 119.055216 21.25986, 119.055216 21.25986, 79.370144 0, 79.370144 0, 39.685072 21.25986, 39.685072 "/> 
</g>
<!-- Top--> 
<g transform="translate(22.5000185, 220.9253785) " > 
<polygon style="stroke:#000000; fill:none; stroke-width:0.90000074" points="21.25986, 21.25986 59.3504425, 21.25986 59.3504425, 0 118.700885, 0 118.700885, 21.25986 157.67729500000002, 21.25986 157.67729500000002, 0 196.653705, 0 196.653705, 21.25986 235.630115, 21.25986 235.630115, 0 274.60652500000003, 0 274.60652500000003, 21.25986 313.582935, 21.25986 313.582935, 0 352.559345, 0 352.559345, 21.25986 391.535755, 21.25986 391.535755, 0 430.512165, 0 430.512165, 21.25986 469.48857499999997, 21.25986 469.48857499999997, 0 508.46498499999996, 0 508.46498499999996, 21.25986 547.441395, 21.25986 547.441395, 0 586.417805, 0 586.417805, 21.25986 625.394215, 21.25986 625.394215, 0 664.370625, 0 664.370625, 21.25986 703.347035, 21.25986 703.347035, 0 742.323445, 0 742.323445, 21.25986 781.299855, 21.25986 781.299855, 0 820.276265, 0 820.276265, 21.25986 859.252675, 21.25986 859.252675, 0 898.2290849999999, 0 898.2290849999999, 21.25986 937.205495, 21.25986 937.205495, 0 976.181905, 0 976.181905, 21.25986 1015.158315, 21.25986 1015.158315, 0 1074.5087575, 0 1074.5087575, 21.25986 1112.59934, 21.25986 1112.59934, 64.6654075 1133.8591999999999, 64.6654075 1133.8591999999999, 129.330815 1112.59934, 129.330815 1112.59934, 168.30722500000002 1133.8591999999999, 168.30722500000002 1133.8591999999999, 207.283635 1112.59934, 207.283635 1112.59934, 246.260045 1133.8591999999999, 246.260045 1133.8591999999999, 285.236455 1112.59934, 285.236455 1112.59934, 324.21286499999997 1133.8591999999999, 324.21286499999997 1133.8591999999999, 363.189275 1112.59934, 363.189275 1112.59934, 402.16568500000005 1133.8591999999999, 402.16568500000005 1133.8591999999999, 441.14209500000004 1112.59934, 441.14209500000004 1112.59934, 480.118505 1133.8591999999999, 480.118505 1133.8591999999999, 519.094915 1112.59934, 519.094915 1112.59934, 558.071325 1133.8591999999999, 558.071325 1133.8591999999999, 597.047735 1112.59934, 597.047735 1112.59934, 636.024145 1133.8591999999999, 636.024145 1133.8591999999999, 675.0005550000001 1112.59934, 675.0005550000001 1112.59934, 713.9769650000001 1133.8591999999999, 713.9769650000001 1133.8591999999999, 752.953375 1112.59934, 752.953375 1112.59934, 791.929785 1133.8591999999999, 791.929785 1133.8591999999999, 856.5951924999999 1112.59934, 856.5951924999999 1112.5993400000002, 900.00074 1074.5087575, 900.00074 1074.5087575, 921.2606 1015.158315, 921.2606 1015.158315, 900.00074 976.181905, 900.00074 976.181905, 921.2606 937.205495, 921.2606 937.205495, 900.00074 898.2290849999999, 900.00074 898.2290849999999, 921.2606 859.252675, 921.2606 859.252675, 900.00074 820.276265, 900.00074 820.276265, 921.2606 781.299855, 921.2606 781.299855, 900.00074 742.323445, 900.00074 742.323445, 921.2606 703.347035, 921.2606 703.347035, 900.00074 664.370625, 900.00074 664.370625, 921.2606 625.394215, 921.2606 625.394215, 900.00074 586.417805, 900.00074 586.417805, 921.2606 547.441395, 921.2606 547.441395, 900.00074 508.46498499999996, 900.00074 508.46498499999996, 921.2606 469.48857499999997, 921.2606 469.48857499999997, 900.00074 430.512165, 900.00074 430.512165, 921.2606 391.535755, 921.2606 391.535755, 900.00074 352.559345, 900.00074 352.559345, 921.2606 313.582935, 921.2606 313.582935, 900.00074 274.60652500000003, 900.00074 274.60652500000003, 921.2606 235.630115, 921.2606 235.630115, 900.00074 196.653705, 900.00074 196.653705, 921.2606 157.67729500000002, 921.2606 157.67729500000002, 900.00074 118.700885, 900.00074 118.700885, 921.2606 59.3504425, 921.2606 59.3504425, 900.00074 21.25986, 900.0007400000001 21.25986, 856.5951924999999 0, 856.5951924999999 0, 791.929785 21.25986, 791.929785 21.25986, 752.953375 0, 752.953375 0, 713.9769650000001 21.25986, 713.9769650000001 21.25986, 675.0005550000001 0, 675.0005550000001 0, 636.024145 21.25986, 636.024145 21.25986, 597.047735 0, 597.047735 0, 558.071325 21.25986, 558.071325 21.25986, 519.094915 0, 519.094915 0, 480.118505 21.25986, 480.118505 21.25986, 441.14209500000004 0, 441.14209500000004 0, 402.16568500000005 21.25986, 402.16568500000005 21.25986, 363.189275 0, 363.189275 0, 324.21286499999997 21.25986, 324.21286499999997 21.25986, 285.236455 0, 285.236455 0, 246.260045 21.25986, 246.260045 21.25986, 207.283635 0, 207.283635 0, 168.30722500000002 21.25986, 168.30722500000002 21.25986, 129.330815 0, 129.330815 0, 64.6654075 21.25986, 64.6654075 "/> 
</g>
<!-- Bottom--> 
<g transform="translate(1156.3592185, 220.9253785) " > 
<polygon style="stroke:#000000; fill:none; stroke-width:0.90000074" points="21.25986, 21.25986 59.3504425, 21.25986 59.3504425, 0 118.700885, 0 118.700885, 21.25986 157.67729500000002, 21.25986 157.67729500000002, 0 196.653705, 0 196.653705, 21.25986 235.630115, 21.25986 235.630115, 0 274.60652500000003, 0 274.60652500000003, 21.25986 313.582935, 21.25986 313.582935, 0 352.559345, 0 352.559345, 21.25986 391.535755, 21.25986 391.535755, 0 430.512165, 0 430.512165, 21.25986 469.48857499999997, 21.25986 469.48857499999997, 0 508.46498499999996, 0 508.46498499999996, 21.25986 547.441395, 21.25986 547.441395, 0 586.417805, 0 586.417805, 21.25986 625.394215, 21.25986 625.394215, 0 664.370625, 0 664.370625, 21.25986 703.347035, 21.25986 703.347035, 0 742.323445, 0 742.323445, 21.25986 781.299855, 21.25986 781.299855, 0 820.276265, 0 820.276265, 21.25986 859.252675, 21.25986 859.252675, 0 898.2290849999999, 0 898.2290849999999, 21.25986 937.205495, 21.25986 937.205495, 0 976.181905, 0 976.181905, 21.25986 1015.158315, 21.25986 1015.158315, 0 1074.5087575, 0 1074.5087575, 21.25986 1112.59934, 21.25986 1112.59934, 64.6654075 1133.8591999999999, 64.6654075 1133.8591999999999, 129.330815 1112.59934, 129.330815 1112.59934, 168.30722500000002 1133.8591999999999, 168.30722500000002 1133.8591999999999, 207.283635 1112.59934, 207.283635 1112.59934, 246.260045 1133.8591999999999, 246.260045 1133.8591999999999, 285.236455 1112.59934, 285.236455 1112.59934, 324.21286499999997 1133.8591999999999, 324.21286499999997 1133.8591999999999, 363.189275 1112.59934, 363.189275 1112.59934, 402.16568500000005 1133.8591999999999, 402.16568500000005 1133.8591999999999, 441.14209500000004 1112.59934, 441.14209500000004 1112.59934, 480.118505 1133.8591999999999, 480.118505 1133.8591999999999, 519.094915 1112.59934, 519.094915 1112.59934, 558.071325 1133.8591999999999, 558.071325 1133.8591999999999, 597.047735 1112.59934, 597.047735 1112.59934, 636.024145 1133.8591999999999, 636.024145 1133.8591999999999, 675.0005550000001 1112.59934, 675.0005550000001 1112.59934, 713.9769650000001 1133.8591999999999, 713.9769650000001 1133.8591999999999, 752.953375 1112.59934, 752.953375 1112.59934, 791.929785 1133.8591999999999, 791.929785 1133.8591999999999, 856.5951924999999 1112.59934, 856.5951924999999 1112.5993400000002, 900.00074 1074.5087575, 900.00074 1074.5087575, 921.2606 1015.158315, 921.2606 1015.158315, 900.00074 976.181905, 900.00074 976.181905, 921.2606 937.205495, 921.2606 937.205495, 900.00074 898.2290849999999, 900.00074 898.2290849999999, 921.2606 859.252675, 921.2606 859.252675, 900.00074 820.276265, 900.00074 820.276265, 921.2606 781.299855, 921.2606 781.299855, 900.00074 742.323445, 900.00074 742.323445, 921.2606 703.347035, 921.2606 703.347035, 900.00074 664.370625, 900.00074 664.370625, 921.2606 625.394215, 921.2606 625.394215, 900.00074 586.417805, 900.00074 586.417805, 921.2606 547.441395, 921.2606 547.441395, 900.00074 508.46498499999996, 900.00074 508.46498499999996, 921.2606 469.48857499999997, 921.2606 469.48857499999997, 900.00074 430.512165, 900.00074 430.512165, 921.2606 391.535755, 921.2606 391.535755, 900.00074 352.559345, 900.00074 352.559345, 921.2606 313.582935, 921.2606 313.582935, 900.00074 274.60652500000003, 900.00074 274.60652500000003, 921.2606 235.630115, 921.2606 235.630115, 900.00074 196.653705, 900.00074 196.653705, 921.2606 157.67729500000002, 921.2606 157.67729500000002, 900.00074 118.700885, 900.00074 118.700885, 921.2606 59.3504425, 921.2606 59.3504425, 900.00074 21.25986, 900.0007400000001 21.25986, 856.5951924999999 0, 856.5951924999999 0, 791.929785 21.25986, 791.929785 21.25986, 752.953375 0, 752.953375 0, 713.9769650000001 21.25986, 713.9769650000001 21.25986, 675.0005550000001 0, 675.0005550000001 0, 636.024145 21.25986, 636.024145 21.25986, 597.047735 0, 597.047735 0, 558.071325 21.25986, 558.071325 21.25986, 519.094915 0, 519.094915 0, 480.118505 21.25986, 480.118505 21.25986, 441.14209500000004 0, 441.14209500000004 0, 402.16568500000005 21.25986, 402.16568500000005 21.25986, 363.189275 0, 363.189275 0, 324.21286499999997 21.25986, 324.21286499999997 21.25986, 285.236455 0, 285.236455 0, 246.260045 21.25986, 246.260045 21.25986, 207.283635 0, 207.283635 0, 168.30722500000002 21.25986, 168.30722500000002 21.25986, 129.330815 0, 129.330815 0, 64.6654075 21.25986, 64.6654075 "/> 
</g></svg>